<svg xmlns="http://www.w3.org/2000/svg" viewBox="0 0 292 70" role="img" aria-labelledby="neogate-logo-title">
  <title id="neogate-logo-title">NeoGate</title>
  <path fill="none" stroke="#061226" stroke-width="6.5" stroke-linecap="round" stroke-linejoin="round" d="M9 54V17l31 37V17" />
  <path fill="none" stroke="#061226" stroke-width="6.5" stroke-linecap="round" stroke-linejoin="round" d="M78 42H50c.9 9.8 8 16.2 18.1 15.4 5.2-.4 9.3-2.4 12.1-5.8" />
  <path fill="none" stroke="#061226" stroke-width="6.5" stroke-linecap="round" stroke-linejoin="round" d="M50 42c0-10.5 7.9-18.4 18.3-18.4 9.6 0 16.7 6.6 17.9 16.1" />
  <circle fill="none" stroke="#061226" stroke-width="6.5" cx="111" cy="41" r="17" />
  <circle fill="none" stroke="#061226" stroke-width="6.5" cx="196" cy="41" r="16.5" />
  <path fill="none" stroke="#061226" stroke-width="6.5" stroke-linecap="round" stroke-linejoin="round" d="M212.5 27v27" />
  <path fill="none" stroke="#061226" stroke-width="6.5" stroke-linecap="round" stroke-linejoin="round" d="M237 19v35" />
  <path fill="none" stroke="#061226" stroke-width="6.5" stroke-linecap="round" stroke-linejoin="round" d="M224 29h26" />
  <path fill="none" stroke="#061226" stroke-width="6.5" stroke-linecap="round" stroke-linejoin="round" d="M282 42h-28c.9 9.8 8 16.2 18.1 15.4 5.2-.4 9.3-2.4 12.1-5.8" />
  <path fill="none" stroke="#061226" stroke-width="6.5" stroke-linecap="round" stroke-linejoin="round" d="M254 42c0-10.5 7.9-18.4 18.3-18.4 9.6 0 16.7 6.6 17.9 16.1" />
  <path fill="none" stroke="#168BD3" stroke-width="7.5" stroke-linecap="round" stroke-linejoin="round" d="M173 21.6c-5.1-5.7-12.3-9.1-20.3-9.1-15.2 0-27.2 11.8-27.2 27s12 27 27.2 27c14.3 0 25.6-10.4 26.8-24.1h-24.8" />
  <path fill="none" stroke="#168BD3" stroke-width="7.5" stroke-linecap="round" stroke-linejoin="round" d="M169.2 42.4h-14.5" />
</svg>
